<?xml version="1.0" standalone="no"?>
<!DOCTYPE svg PUBLIC "-//W3C//DTD SVG 20010904//EN"
 "http://www.w3.org/TR/2001/REC-SVG-20010904/DTD/svg10.dtd">
<svg version="1.0" xmlns="http://www.w3.org/2000/svg"
 width="48.000000pt" height="48.000000pt" viewBox="0 0 48.000000 48.000000"
 preserveAspectRatio="xMidYMid meet">

<g transform="translate(0.000000,48.000000) scale(0.100000,-0.100000)"
fill="#000000" stroke="none">
<path d="M385 441 c-17 -10 -44 -33 -59 -52 -29 -34 -46 -41 -156 -59 -90 -15
-140 -86 -140 -202 0 -35 6 -54 20 -68 38 -38 144 -19 170 30 12 23 3 26 -19
6 -26 -23 -64 -28 -86 -12 -41 30 -8 188 45 216 28 15 43 -3 35 -38 -5 -19 -2
-23 12 -20 11 2 21 17 27 40 5 21 16 40 24 43 24 9 25 -1 4 -42 -32 -61 -45
-122 -31 -139 20 -25 36 -15 43 26 8 53 35 132 49 147 8 7 20 8 33 3 21 -8 21
-10 8 -67 -19 -79 -18 -83 14 -83 27 0 27 1 55 133 15 72 28 138 27 145 0 18
-41 15 -75 -7z m6 -60 c-5 -24 -11 -45 -14 -47 -8 -8 -37 8 -37 21 0 15 50 78
57 72 2 -3 -1 -23 -6 -46z"/>
</g>
</svg>
